<?xml version="1.0" encoding="UTF-8" standalone="no"?>
<!DOCTYPE svg PUBLIC "-//W3C//DTD SVG 1.1//EN"
 "http://www.w3.org/Graphics/SVG/1.1/DTD/svg11.dtd">
<!-- Generated by graphviz version 2.47.0 (20210316.0004)
 -->
<!-- Title: dependencies Pages: 1 -->
<svg width="504pt" height="211pt"
 viewBox="0.00 0.00 504.00 211.00" xmlns="http://www.w3.org/2000/svg" xmlns:xlink="http://www.w3.org/1999/xlink">
<g id="graph0" class="graph" transform="scale(1 1) rotate(0) translate(4 207)">
<title>dependencies</title>
<polygon fill="white" stroke="transparent" points="-4,4 -4,-207 500,-207 500,4 -4,4"/>
<text text-anchor="start" x="227.01" y="-42.4" font-family="Times-12" font-weight="bold" font-size="14.00">Legend</text>
<polygon fill="#ffffb3" stroke="transparent" points="14,-10 14,-30 34,-30 34,-10 14,-10"/>
<text text-anchor="start" x="37.63" y="-15.4" font-family="Times-12" font-size="14.00"> &#160;Declarations</text>
<polygon fill="#8dd3c7" stroke="transparent" points="127,-10 127,-30 147,-30 147,-10 127,-10"/>
<text text-anchor="start" x="150.73" y="-15.4" font-family="Times-12" font-size="14.00"> &#160;Module</text>
<polygon fill="#80b1d3" stroke="transparent" points="213,-10 213,-30 233,-30 233,-10 213,-10"/>
<text text-anchor="start" x="236.78" y="-15.4" font-family="Times-12" font-size="14.00"> &#160;Bootstrap</text>
<polygon fill="#fdb462" stroke="transparent" points="310,-10 310,-30 330,-30 330,-10 310,-10"/>
<text text-anchor="start" x="333.67" y="-15.4" font-family="Times-12" font-size="14.00"> &#160;Providers</text>
<polygon fill="#fb8072" stroke="transparent" points="406,-10 406,-30 426,-30 426,-10 406,-10"/>
<text text-anchor="start" x="429.73" y="-15.4" font-family="Times-12" font-size="14.00"> &#160;Exports</text>
<g id="clust1" class="cluster">
<title>cluster_EventsModule</title>
<polygon fill="none" stroke="black" stroke-dasharray="1,5" points="69,-70 69,-195 427,-195 427,-70 69,-70"/>
</g>
<g id="clust3" class="cluster">
<title>cluster_EventsModule_imports</title>
<polygon fill="none" stroke="black" points="77,-78 77,-130 419,-130 419,-78 77,-78"/>
</g>
<!-- MatchModule -->
<g id="node1" class="node">
<title>MatchModule</title>
<polygon fill="#8dd3c7" stroke="black" points="410.81,-122 407.81,-126 386.81,-126 383.81,-122 315.19,-122 315.19,-86 410.81,-86 410.81,-122"/>
<text text-anchor="middle" x="363" y="-99.8" font-family="Times,serif" font-size="14.00">MatchModule</text>
</g>
<!-- EventsModule -->
<g id="node4" class="node">
<title>EventsModule</title>
<polygon fill="#8dd3c7" stroke="black" points="291.65,-187 288.65,-191 267.65,-191 264.65,-187 194.35,-187 194.35,-151 291.65,-151 291.65,-187"/>
<text text-anchor="middle" x="243" y="-164.8" font-family="Times,serif" font-size="14.00">EventsModule</text>
</g>
<!-- MatchModule&#45;&gt;EventsModule -->
<g id="edge1" class="edge">
<title>MatchModule&#45;&gt;EventsModule</title>
<path fill="none" stroke="black" d="M363,-122.11C363,-141.34 363,-169 363,-169 363,-169 301.81,-169 301.81,-169"/>
<polygon fill="black" stroke="black" points="301.81,-165.5 291.81,-169 301.81,-172.5 301.81,-165.5"/>
</g>
<!-- MessageModule -->
<g id="node2" class="node">
<title>MessageModule</title>
<polygon fill="#8dd3c7" stroke="black" points="297.03,-122 294.03,-126 273.03,-126 270.03,-122 188.97,-122 188.97,-86 297.03,-86 297.03,-122"/>
<text text-anchor="middle" x="243" y="-99.8" font-family="Times,serif" font-size="14.00">MessageModule</text>
</g>
<!-- MessageModule&#45;&gt;EventsModule -->
<g id="edge2" class="edge">
<title>MessageModule&#45;&gt;EventsModule</title>
<path fill="none" stroke="black" d="M243,-122.11C243,-122.11 243,-140.99 243,-140.99"/>
<polygon fill="black" stroke="black" points="239.5,-140.99 243,-150.99 246.5,-140.99 239.5,-140.99"/>
</g>
<!-- UserModule -->
<g id="node3" class="node">
<title>UserModule</title>
<polygon fill="#8dd3c7" stroke="black" points="170.98,-122 167.98,-126 146.98,-126 143.98,-122 85.02,-122 85.02,-86 170.98,-86 170.98,-122"/>
<text text-anchor="middle" x="128" y="-99.8" font-family="Times,serif" font-size="14.00">UserModule</text>
</g>
<!-- UserModule&#45;&gt;EventsModule -->
<g id="edge3" class="edge">
<title>UserModule&#45;&gt;EventsModule</title>
<path fill="none" stroke="black" d="M128,-122.11C128,-141.34 128,-169 128,-169 128,-169 184.23,-169 184.23,-169"/>
<polygon fill="black" stroke="black" points="184.23,-172.5 194.23,-169 184.23,-165.5 184.23,-172.5"/>
</g>
</g>
</svg>
