<?xml version="1.0" encoding="UTF-8" standalone="no"?>
<!DOCTYPE svg PUBLIC "-//W3C//DTD SVG 1.1//EN"
 "http://www.w3.org/Graphics/SVG/1.1/DTD/svg11.dtd">
<!-- Generated by graphviz version 2.47.0 (20210316.0004)
 -->
<!-- Title: dependencies Pages: 1 -->
<svg width="793pt" height="211pt"
 viewBox="0.00 0.00 793.00 211.00" xmlns="http://www.w3.org/2000/svg" xmlns:xlink="http://www.w3.org/1999/xlink">
<g id="graph0" class="graph" transform="scale(1 1) rotate(0) translate(4 207)">
<title>dependencies</title>
<polygon fill="white" stroke="transparent" points="-4,4 -4,-207 789,-207 789,4 -4,4"/>
<text text-anchor="start" x="371.51" y="-42.4" font-family="Times-12" font-weight="bold" font-size="14.00">Legend</text>
<polygon fill="#ffffb3" stroke="transparent" points="158.5,-10 158.5,-30 178.5,-30 178.5,-10 158.5,-10"/>
<text text-anchor="start" x="182.13" y="-15.4" font-family="Times-12" font-size="14.00"> &#160;Declarations</text>
<polygon fill="#8dd3c7" stroke="transparent" points="271.5,-10 271.5,-30 291.5,-30 291.5,-10 271.5,-10"/>
<text text-anchor="start" x="295.23" y="-15.4" font-family="Times-12" font-size="14.00"> &#160;Module</text>
<polygon fill="#80b1d3" stroke="transparent" points="357.5,-10 357.5,-30 377.5,-30 377.5,-10 357.5,-10"/>
<text text-anchor="start" x="381.28" y="-15.4" font-family="Times-12" font-size="14.00"> &#160;Bootstrap</text>
<polygon fill="#fdb462" stroke="transparent" points="454.5,-10 454.5,-30 474.5,-30 474.5,-10 454.5,-10"/>
<text text-anchor="start" x="478.17" y="-15.4" font-family="Times-12" font-size="14.00"> &#160;Providers</text>
<polygon fill="#fb8072" stroke="transparent" points="550.5,-10 550.5,-30 570.5,-30 570.5,-10 550.5,-10"/>
<text text-anchor="start" x="574.23" y="-15.4" font-family="Times-12" font-size="14.00"> &#160;Exports</text>
<g id="clust1" class="cluster">
<title>cluster_AuthModule</title>
<polygon fill="none" stroke="black" stroke-dasharray="1,5" points="8,-70 8,-195 777,-195 777,-70 8,-70"/>
</g>
<g id="clust6" class="cluster">
<title>cluster_AuthModule_providers</title>
<polygon fill="none" stroke="black" points="240,-78 240,-130 769,-130 769,-78 240,-78"/>
</g>
<g id="clust3" class="cluster">
<title>cluster_AuthModule_imports</title>
<polygon fill="none" stroke="black" points="16,-78 16,-130 232,-130 232,-78 16,-78"/>
</g>
<!-- MailerModule -->
<g id="node1" class="node">
<title>MailerModule</title>
<polygon fill="#8dd3c7" stroke="black" points="224.37,-122 221.37,-126 200.37,-126 197.37,-122 127.63,-122 127.63,-86 224.37,-86 224.37,-122"/>
<text text-anchor="middle" x="176" y="-99.8" font-family="Times,serif" font-size="14.00">MailerModule</text>
</g>
<!-- AuthModule -->
<g id="node3" class="node">
<title>AuthModule</title>
<polygon fill="#8dd3c7" stroke="black" points="423.55,-187 420.55,-191 399.55,-191 396.55,-187 336.45,-187 336.45,-151 423.55,-151 423.55,-187"/>
<text text-anchor="middle" x="380" y="-164.8" font-family="Times,serif" font-size="14.00">AuthModule</text>
</g>
<!-- MailerModule&#45;&gt;AuthModule -->
<g id="edge1" class="edge">
<title>MailerModule&#45;&gt;AuthModule</title>
<path fill="none" stroke="black" d="M176,-122.02C176,-139.37 176,-163 176,-163 176,-163 326.24,-163 326.24,-163"/>
<polygon fill="black" stroke="black" points="326.24,-166.5 336.24,-163 326.24,-159.5 326.24,-166.5"/>
</g>
<!-- UserModule -->
<g id="node2" class="node">
<title>UserModule</title>
<polygon fill="#8dd3c7" stroke="black" points="109.98,-122 106.98,-126 85.98,-126 82.98,-122 24.02,-122 24.02,-86 109.98,-86 109.98,-122"/>
<text text-anchor="middle" x="67" y="-99.8" font-family="Times,serif" font-size="14.00">UserModule</text>
</g>
<!-- UserModule&#45;&gt;AuthModule -->
<g id="edge2" class="edge">
<title>UserModule&#45;&gt;AuthModule</title>
<path fill="none" stroke="black" d="M67,-122.28C67,-143.32 67,-175 67,-175 67,-175 326.15,-175 326.15,-175"/>
<polygon fill="black" stroke="black" points="326.15,-178.5 336.15,-175 326.15,-171.5 326.15,-178.5"/>
</g>
<!-- AtStrategy -->
<g id="node4" class="node">
<title>AtStrategy</title>
<ellipse fill="#fdb462" stroke="black" cx="708" cy="-104" rx="52.74" ry="18"/>
<text text-anchor="middle" x="708" y="-99.8" font-family="Times,serif" font-size="14.00">AtStrategy</text>
</g>
<!-- AtStrategy&#45;&gt;AuthModule -->
<g id="edge3" class="edge">
<title>AtStrategy&#45;&gt;AuthModule</title>
<path fill="none" stroke="black" d="M708,-122.28C708,-143.32 708,-175 708,-175 708,-175 433.56,-175 433.56,-175"/>
<polygon fill="black" stroke="black" points="433.56,-171.5 423.56,-175 433.56,-178.5 433.56,-171.5"/>
</g>
<!-- AuthService -->
<g id="node5" class="node">
<title>AuthService</title>
<ellipse fill="#fdb462" stroke="black" cx="578" cy="-104" rx="59.11" ry="18"/>
<text text-anchor="middle" x="578" y="-99.8" font-family="Times,serif" font-size="14.00">AuthService</text>
</g>
<!-- AuthService&#45;&gt;AuthModule -->
<g id="edge4" class="edge">
<title>AuthService&#45;&gt;AuthModule</title>
<path fill="none" stroke="black" d="M578,-122.02C578,-139.37 578,-163 578,-163 578,-163 433.94,-163 433.94,-163"/>
<polygon fill="black" stroke="black" points="433.94,-159.5 423.94,-163 433.94,-166.5 433.94,-159.5"/>
</g>
<!-- RtStrategy -->
<g id="node6" class="node">
<title>RtStrategy</title>
<ellipse fill="#fdb462" stroke="black" cx="448" cy="-104" rx="52.18" ry="18"/>
<text text-anchor="middle" x="448" y="-99.8" font-family="Times,serif" font-size="14.00">RtStrategy</text>
</g>
<!-- RtStrategy&#45;&gt;AuthModule -->
<g id="edge5" class="edge">
<title>RtStrategy&#45;&gt;AuthModule</title>
<path fill="none" stroke="black" d="M409.72,-116.53C409.72,-116.53 409.72,-140.85 409.72,-140.85"/>
<polygon fill="black" stroke="black" points="406.22,-140.85 409.72,-150.85 413.22,-140.85 406.22,-140.85"/>
</g>
<!-- TokenService -->
<g id="node7" class="node">
<title>TokenService</title>
<ellipse fill="#fdb462" stroke="black" cx="313" cy="-104" rx="64.83" ry="18"/>
<text text-anchor="middle" x="313" y="-99.8" font-family="Times,serif" font-size="14.00">TokenService</text>
</g>
<!-- TokenService&#45;&gt;AuthModule -->
<g id="edge6" class="edge">
<title>TokenService&#45;&gt;AuthModule</title>
<path fill="none" stroke="black" d="M356.94,-117.47C356.94,-117.47 356.94,-140.86 356.94,-140.86"/>
<polygon fill="black" stroke="black" points="353.45,-140.86 356.94,-150.86 360.45,-140.86 353.45,-140.86"/>
</g>
</g>
</svg>
