<?xml version="1.0" encoding="UTF-8" standalone="no"?>
<!DOCTYPE svg PUBLIC "-//W3C//DTD SVG 1.1//EN"
 "http://www.w3.org/Graphics/SVG/1.1/DTD/svg11.dtd">
<!-- Generated by graphviz version 2.47.0 (20210316.0004)
 -->
<!-- Title: dependencies Pages: 1 -->
<svg width="1106pt" height="211pt"
 viewBox="0.00 0.00 1106.00 211.00" xmlns="http://www.w3.org/2000/svg" xmlns:xlink="http://www.w3.org/1999/xlink">
<g id="graph0" class="graph" transform="scale(1 1) rotate(0) translate(4 207)">
<title>dependencies</title>
<polygon fill="white" stroke="transparent" points="-4,4 -4,-207 1102,-207 1102,4 -4,4"/>
<text text-anchor="start" x="528.01" y="-42.4" font-family="Times-12" font-weight="bold" font-size="14.00">Legend</text>
<polygon fill="#ffffb3" stroke="transparent" points="315,-10 315,-30 335,-30 335,-10 315,-10"/>
<text text-anchor="start" x="338.63" y="-15.4" font-family="Times-12" font-size="14.00"> &#160;Declarations</text>
<polygon fill="#8dd3c7" stroke="transparent" points="428,-10 428,-30 448,-30 448,-10 428,-10"/>
<text text-anchor="start" x="451.73" y="-15.4" font-family="Times-12" font-size="14.00"> &#160;Module</text>
<polygon fill="#80b1d3" stroke="transparent" points="514,-10 514,-30 534,-30 534,-10 514,-10"/>
<text text-anchor="start" x="537.78" y="-15.4" font-family="Times-12" font-size="14.00"> &#160;Bootstrap</text>
<polygon fill="#fdb462" stroke="transparent" points="611,-10 611,-30 631,-30 631,-10 611,-10"/>
<text text-anchor="start" x="634.67" y="-15.4" font-family="Times-12" font-size="14.00"> &#160;Providers</text>
<polygon fill="#fb8072" stroke="transparent" points="707,-10 707,-30 727,-30 727,-10 707,-10"/>
<text text-anchor="start" x="730.73" y="-15.4" font-family="Times-12" font-size="14.00"> &#160;Exports</text>
<g id="clust1" class="cluster">
<title>cluster_AppModule</title>
<polygon fill="none" stroke="black" stroke-dasharray="1,5" points="8,-70 8,-195 1090,-195 1090,-70 8,-70"/>
</g>
<g id="clust3" class="cluster">
<title>cluster_AppModule_imports</title>
<polygon fill="none" stroke="black" points="16,-78 16,-130 1082,-130 1082,-78 16,-78"/>
</g>
<!-- AuthModule -->
<g id="node1" class="node">
<title>AuthModule</title>
<polygon fill="#8dd3c7" stroke="black" points="1073.55,-122 1070.55,-126 1049.55,-126 1046.55,-122 986.45,-122 986.45,-86 1073.55,-86 1073.55,-122"/>
<text text-anchor="middle" x="1030" y="-99.8" font-family="Times,serif" font-size="14.00">AuthModule</text>
</g>
<!-- AppModule -->
<g id="node10" class="node">
<title>AppModule</title>
<polygon fill="#8dd3c7" stroke="black" points="611.66,-187 608.66,-191 587.66,-191 584.66,-187 528.34,-187 528.34,-151 611.66,-151 611.66,-187"/>
<text text-anchor="middle" x="570" y="-164.8" font-family="Times,serif" font-size="14.00">AppModule</text>
</g>
<!-- AuthModule&#45;&gt;AppModule -->
<g id="edge1" class="edge">
<title>AuthModule&#45;&gt;AppModule</title>
<path fill="none" stroke="black" d="M1030,-122.01C1030,-144.49 1030,-180 1030,-180 1030,-180 622.04,-180 622.04,-180"/>
<polygon fill="black" stroke="black" points="622.04,-176.5 612.04,-180 622.04,-183.5 622.04,-176.5"/>
</g>
<!-- EventsModule -->
<g id="node2" class="node">
<title>EventsModule</title>
<polygon fill="#8dd3c7" stroke="black" points="967.65,-122 964.65,-126 943.65,-126 940.65,-122 870.35,-122 870.35,-86 967.65,-86 967.65,-122"/>
<text text-anchor="middle" x="919" y="-99.8" font-family="Times,serif" font-size="14.00">EventsModule</text>
</g>
<!-- EventsModule&#45;&gt;AppModule -->
<g id="edge2" class="edge">
<title>EventsModule&#45;&gt;AppModule</title>
<path fill="none" stroke="black" d="M919,-122.13C919,-142.57 919,-173 919,-173 919,-173 621.75,-173 621.75,-173"/>
<polygon fill="black" stroke="black" points="621.75,-169.5 611.75,-173 621.75,-176.5 621.75,-169.5"/>
</g>
<!-- GeminiModule -->
<g id="node3" class="node">
<title>GeminiModule</title>
<polygon fill="#8dd3c7" stroke="black" points="851.54,-122 848.54,-126 827.54,-126 824.54,-122 750.46,-122 750.46,-86 851.54,-86 851.54,-122"/>
<text text-anchor="middle" x="801" y="-99.8" font-family="Times,serif" font-size="14.00">GeminiModule</text>
</g>
<!-- GeminiModule&#45;&gt;AppModule -->
<g id="edge3" class="edge">
<title>GeminiModule&#45;&gt;AppModule</title>
<path fill="none" stroke="black" d="M801,-122.27C801,-140.56 801,-166 801,-166 801,-166 621.83,-166 621.83,-166"/>
<polygon fill="black" stroke="black" points="621.83,-162.5 611.83,-166 621.83,-169.5 621.83,-162.5"/>
</g>
<!-- MailerModule -->
<g id="node4" class="node">
<title>MailerModule</title>
<polygon fill="#8dd3c7" stroke="black" points="732.37,-122 729.37,-126 708.37,-126 705.37,-122 635.63,-122 635.63,-86 732.37,-86 732.37,-122"/>
<text text-anchor="middle" x="684" y="-99.8" font-family="Times,serif" font-size="14.00">MailerModule</text>
</g>
<!-- MailerModule&#45;&gt;AppModule -->
<g id="edge4" class="edge">
<title>MailerModule&#45;&gt;AppModule</title>
<path fill="none" stroke="black" d="M684,-122.01C684,-138.05 684,-159 684,-159 684,-159 621.8,-159 621.8,-159"/>
<polygon fill="black" stroke="black" points="621.8,-155.5 611.8,-159 621.8,-162.5 621.8,-155.5"/>
</g>
<!-- MatchModule -->
<g id="node5" class="node">
<title>MatchModule</title>
<polygon fill="#8dd3c7" stroke="black" points="617.81,-122 614.81,-126 593.81,-126 590.81,-122 522.19,-122 522.19,-86 617.81,-86 617.81,-122"/>
<text text-anchor="middle" x="570" y="-99.8" font-family="Times,serif" font-size="14.00">MatchModule</text>
</g>
<!-- MatchModule&#45;&gt;AppModule -->
<g id="edge5" class="edge">
<title>MatchModule&#45;&gt;AppModule</title>
<path fill="none" stroke="black" d="M570,-122.11C570,-122.11 570,-140.99 570,-140.99"/>
<polygon fill="black" stroke="black" points="566.5,-140.99 570,-150.99 573.5,-140.99 566.5,-140.99"/>
</g>
<!-- MatchPlayerModule -->
<g id="node6" class="node">
<title>MatchPlayerModule</title>
<polygon fill="#8dd3c7" stroke="black" points="504.58,-122 501.58,-126 480.58,-126 477.58,-122 373.42,-122 373.42,-86 504.58,-86 504.58,-122"/>
<text text-anchor="middle" x="439" y="-99.8" font-family="Times,serif" font-size="14.00">MatchPlayerModule</text>
</g>
<!-- MatchPlayerModule&#45;&gt;AppModule -->
<g id="edge6" class="edge">
<title>MatchPlayerModule&#45;&gt;AppModule</title>
<path fill="none" stroke="black" d="M439,-122.01C439,-138.05 439,-159 439,-159 439,-159 518.19,-159 518.19,-159"/>
<polygon fill="black" stroke="black" points="518.19,-162.5 528.19,-159 518.19,-155.5 518.19,-162.5"/>
</g>
<!-- MessageModule -->
<g id="node7" class="node">
<title>MessageModule</title>
<polygon fill="#8dd3c7" stroke="black" points="355.03,-122 352.03,-126 331.03,-126 328.03,-122 246.97,-122 246.97,-86 355.03,-86 355.03,-122"/>
<text text-anchor="middle" x="301" y="-99.8" font-family="Times,serif" font-size="14.00">MessageModule</text>
</g>
<!-- MessageModule&#45;&gt;AppModule -->
<g id="edge7" class="edge">
<title>MessageModule&#45;&gt;AppModule</title>
<path fill="none" stroke="black" d="M301,-122.27C301,-140.56 301,-166 301,-166 301,-166 518.26,-166 518.26,-166"/>
<polygon fill="black" stroke="black" points="518.26,-169.5 528.26,-166 518.26,-162.5 518.26,-169.5"/>
</g>
<!-- TerrainModule -->
<g id="node8" class="node">
<title>TerrainModule</title>
<polygon fill="#8dd3c7" stroke="black" points="228.24,-122 225.24,-126 204.24,-126 201.24,-122 127.76,-122 127.76,-86 228.24,-86 228.24,-122"/>
<text text-anchor="middle" x="178" y="-99.8" font-family="Times,serif" font-size="14.00">TerrainModule</text>
</g>
<!-- TerrainModule&#45;&gt;AppModule -->
<g id="edge8" class="edge">
<title>TerrainModule&#45;&gt;AppModule</title>
<path fill="none" stroke="black" d="M178,-122.13C178,-142.57 178,-173 178,-173 178,-173 518.05,-173 518.05,-173"/>
<polygon fill="black" stroke="black" points="518.05,-176.5 528.05,-173 518.05,-169.5 518.05,-176.5"/>
</g>
<!-- UserModule -->
<g id="node9" class="node">
<title>UserModule</title>
<polygon fill="#8dd3c7" stroke="black" points="109.98,-122 106.98,-126 85.98,-126 82.98,-122 24.02,-122 24.02,-86 109.98,-86 109.98,-122"/>
<text text-anchor="middle" x="67" y="-99.8" font-family="Times,serif" font-size="14.00">UserModule</text>
</g>
<!-- UserModule&#45;&gt;AppModule -->
<g id="edge9" class="edge">
<title>UserModule&#45;&gt;AppModule</title>
<path fill="none" stroke="black" d="M67,-122.01C67,-144.49 67,-180 67,-180 67,-180 517.98,-180 517.98,-180"/>
<polygon fill="black" stroke="black" points="517.98,-183.5 527.98,-180 517.98,-176.5 517.98,-183.5"/>
</g>
</g>
</svg>
