<?xml version="1.0" encoding="UTF-8" standalone="no"?>
<!DOCTYPE svg PUBLIC "-//W3C//DTD SVG 1.1//EN"
 "http://www.w3.org/Graphics/SVG/1.1/DTD/svg11.dtd">
<!-- Generated by graphviz version 2.47.0 (20210316.0004)
 -->
<!-- Title: dependencies Pages: 1 -->
<svg width="2652pt" height="428pt"
 viewBox="0.00 0.00 2652.00 428.00" xmlns="http://www.w3.org/2000/svg" xmlns:xlink="http://www.w3.org/1999/xlink">
<g id="graph0" class="graph" transform="scale(1 1) rotate(0) translate(4 424)">
<title>dependencies</title>
<polygon fill="white" stroke="transparent" points="-4,4 -4,-424 2648,-424 2648,4 -4,4"/>
<text text-anchor="start" x="1301.01" y="-42.4" font-family="Times-12" font-weight="bold" font-size="14.00">Legend</text>
<polygon fill="#ffffb3" stroke="transparent" points="1088,-10 1088,-30 1108,-30 1108,-10 1088,-10"/>
<text text-anchor="start" x="1111.63" y="-15.4" font-family="Times-12" font-size="14.00"> &#160;Declarations</text>
<polygon fill="#8dd3c7" stroke="transparent" points="1201,-10 1201,-30 1221,-30 1221,-10 1201,-10"/>
<text text-anchor="start" x="1224.73" y="-15.4" font-family="Times-12" font-size="14.00"> &#160;Module</text>
<polygon fill="#80b1d3" stroke="transparent" points="1287,-10 1287,-30 1307,-30 1307,-10 1287,-10"/>
<text text-anchor="start" x="1310.78" y="-15.4" font-family="Times-12" font-size="14.00"> &#160;Bootstrap</text>
<polygon fill="#fdb462" stroke="transparent" points="1384,-10 1384,-30 1404,-30 1404,-10 1384,-10"/>
<text text-anchor="start" x="1407.67" y="-15.4" font-family="Times-12" font-size="14.00"> &#160;Providers</text>
<polygon fill="#fb8072" stroke="transparent" points="1480,-10 1480,-30 1500,-30 1500,-10 1480,-10"/>
<text text-anchor="start" x="1503.73" y="-15.4" font-family="Times-12" font-size="14.00"> &#160;Exports</text>
<g id="clust1" class="cluster">
<title>cluster_AppModule</title>
<polygon fill="none" stroke="black" stroke-dasharray="1,5" points="1184,-146 1184,-412 1708,-412 1708,-146 1184,-146"/>
</g>
<g id="clust3" class="cluster">
<title>cluster_AppModule_imports</title>
<polygon fill="none" stroke="black" points="1244,-154 1244,-347 1700,-347 1700,-154 1244,-154"/>
</g>
<g id="clust7" class="cluster">
<title>cluster_AuthModule</title>
<polygon fill="none" stroke="black" stroke-dasharray="1,5" points="2092,-211 2092,-279 2636,-279 2636,-211 2092,-211"/>
</g>
<g id="clust12" class="cluster">
<title>cluster_AuthModule_providers</title>
<polygon fill="none" stroke="black" points="2100,-219 2100,-271 2628,-271 2628,-219 2100,-219"/>
</g>
<g id="clust19" class="cluster">
<title>cluster_GeminiModule</title>
<polygon fill="none" stroke="black" stroke-dasharray="1,5" points="1203,-70 1203,-138 1373,-138 1373,-70 1203,-70"/>
</g>
<g id="clust24" class="cluster">
<title>cluster_GeminiModule_providers</title>
<polygon fill="none" stroke="black" points="1211,-78 1211,-130 1365,-130 1365,-78 1211,-78"/>
</g>
<g id="clust25" class="cluster">
<title>cluster_MailerModule</title>
<polygon fill="none" stroke="black" stroke-dasharray="1,5" points="8,-287 8,-355 294,-355 294,-287 8,-287"/>
</g>
<g id="clust28" class="cluster">
<title>cluster_MailerModule_exports</title>
<polygon fill="none" stroke="black" points="172,-295 172,-347 286,-347 286,-295 172,-295"/>
</g>
<g id="clust30" class="cluster">
<title>cluster_MailerModule_providers</title>
<polygon fill="none" stroke="black" points="16,-295 16,-347 164,-347 164,-295 16,-295"/>
</g>
<g id="clust31" class="cluster">
<title>cluster_MatchModule</title>
<polygon fill="none" stroke="black" stroke-dasharray="1,5" points="302,-287 302,-355 586,-355 586,-287 302,-287"/>
</g>
<g id="clust34" class="cluster">
<title>cluster_MatchModule_exports</title>
<polygon fill="none" stroke="black" points="464,-295 464,-347 578,-347 578,-295 464,-295"/>
</g>
<g id="clust36" class="cluster">
<title>cluster_MatchModule_providers</title>
<polygon fill="none" stroke="black" points="310,-295 310,-347 456,-347 456,-295 310,-295"/>
</g>
<g id="clust37" class="cluster">
<title>cluster_MatchPlayerModule</title>
<polygon fill="none" stroke="black" stroke-dasharray="1,5" points="1716,-211 1716,-279 2084,-279 2084,-211 1716,-211"/>
</g>
<g id="clust40" class="cluster">
<title>cluster_MatchPlayerModule_exports</title>
<polygon fill="none" stroke="black" points="1926,-219 1926,-271 2076,-271 2076,-219 1926,-219"/>
</g>
<g id="clust42" class="cluster">
<title>cluster_MatchPlayerModule_providers</title>
<polygon fill="none" stroke="black" points="1724,-219 1724,-271 1918,-271 1918,-219 1724,-219"/>
</g>
<g id="clust43" class="cluster">
<title>cluster_MessageModule</title>
<polygon fill="none" stroke="black" stroke-dasharray="1,5" points="594,-287 594,-355 908,-355 908,-287 594,-287"/>
</g>
<g id="clust46" class="cluster">
<title>cluster_MessageModule_exports</title>
<polygon fill="none" stroke="black" points="774,-295 774,-347 900,-347 900,-295 774,-295"/>
</g>
<g id="clust48" class="cluster">
<title>cluster_MessageModule_providers</title>
<polygon fill="none" stroke="black" points="602,-295 602,-347 766,-347 766,-295 602,-295"/>
</g>
<g id="clust49" class="cluster">
<title>cluster_TerrainModule</title>
<polygon fill="none" stroke="black" stroke-dasharray="1,5" points="1381,-70 1381,-138 1549,-138 1549,-70 1381,-70"/>
</g>
<g id="clust54" class="cluster">
<title>cluster_TerrainModule_providers</title>
<polygon fill="none" stroke="black" points="1389,-78 1389,-130 1541,-130 1541,-78 1389,-78"/>
</g>
<g id="clust55" class="cluster">
<title>cluster_UserModule</title>
<polygon fill="none" stroke="black" stroke-dasharray="1,5" points="916,-287 916,-355 1176,-355 1176,-287 916,-287"/>
</g>
<g id="clust58" class="cluster">
<title>cluster_UserModule_exports</title>
<polygon fill="none" stroke="black" points="1064,-295 1064,-347 1168,-347 1168,-295 1064,-295"/>
</g>
<g id="clust60" class="cluster">
<title>cluster_UserModule_providers</title>
<polygon fill="none" stroke="black" points="924,-295 924,-347 1056,-347 1056,-295 924,-295"/>
</g>
<!-- AuthModule -->
<g id="node1" class="node">
<title>AuthModule</title>
<polygon fill="#8dd3c7" stroke="black" points="1691.55,-339 1688.55,-343 1667.55,-343 1664.55,-339 1604.45,-339 1604.45,-303 1691.55,-303 1691.55,-339"/>
<text text-anchor="middle" x="1648" y="-316.8" font-family="Times,serif" font-size="14.00">AuthModule</text>
</g>
<!-- AppModule -->
<g id="node10" class="node">
<title>AppModule</title>
<polygon fill="#8dd3c7" stroke="black" points="1455.66,-404 1452.66,-408 1431.66,-408 1428.66,-404 1372.34,-404 1372.34,-368 1455.66,-368 1455.66,-404"/>
<text text-anchor="middle" x="1414" y="-381.8" font-family="Times,serif" font-size="14.00">AppModule</text>
</g>
<!-- AuthModule&#45;&gt;AppModule -->
<g id="edge1" class="edge">
<title>AuthModule&#45;&gt;AppModule</title>
<path fill="none" stroke="black" d="M1648,-339.09C1648,-362.13 1648,-399 1648,-399 1648,-399 1465.83,-399 1465.83,-399"/>
<polygon fill="black" stroke="black" points="1465.83,-395.5 1455.83,-399 1465.83,-402.5 1465.83,-395.5"/>
</g>
<!-- EventsModule -->
<g id="node2" class="node">
<title>EventsModule</title>
<polygon fill="#8dd3c7" stroke="black" points="1580.65,-339 1577.65,-343 1556.65,-343 1553.65,-339 1483.35,-339 1483.35,-303 1580.65,-303 1580.65,-339"/>
<text text-anchor="middle" x="1532" y="-316.8" font-family="Times,serif" font-size="14.00">EventsModule</text>
</g>
<!-- EventsModule&#45;&gt;AppModule -->
<g id="edge2" class="edge">
<title>EventsModule&#45;&gt;AppModule</title>
<path fill="none" stroke="black" d="M1483.25,-327C1462.02,-327 1441.89,-327 1441.89,-327 1441.89,-327 1441.89,-357.98 1441.89,-357.98"/>
<polygon fill="black" stroke="black" points="1438.39,-357.98 1441.89,-367.98 1445.39,-357.98 1438.39,-357.98"/>
</g>
<!-- GeminiModule -->
<g id="node3" class="node">
<title>GeminiModule</title>
<polygon fill="#8dd3c7" stroke="black" points="1353.54,-198 1350.54,-202 1329.54,-202 1326.54,-198 1252.46,-198 1252.46,-162 1353.54,-162 1353.54,-198"/>
<text text-anchor="middle" x="1303" y="-175.8" font-family="Times,serif" font-size="14.00">GeminiModule</text>
</g>
<!-- GeminiModule&#45;&gt;AppModule -->
<g id="edge3" class="edge">
<title>GeminiModule&#45;&gt;AppModule</title>
<path fill="none" stroke="black" d="M1353.98,-180C1358.64,-180 1361.65,-180 1361.65,-180 1361.65,-180 1361.65,-380 1361.65,-380 1361.65,-380 1362.71,-380 1362.71,-380"/>
<polygon fill="black" stroke="black" points="1362.24,-383.5 1372.24,-380 1362.24,-376.5 1362.24,-383.5"/>
</g>
<!-- MailerModule -->
<g id="node4" class="node">
<title>MailerModule</title>
<polygon fill="#8dd3c7" stroke="black" points="1348.37,-263 1345.37,-267 1324.37,-267 1321.37,-263 1251.63,-263 1251.63,-227 1348.37,-227 1348.37,-263"/>
<text text-anchor="middle" x="1300" y="-240.8" font-family="Times,serif" font-size="14.00">MailerModule</text>
</g>
<!-- MailerModule&#45;&gt;AuthModule -->
<g id="edge10" class="edge">
<title>MailerModule&#45;&gt;AuthModule</title>
<path fill="none" stroke="black" d="M1283.86,-263.49C1283.86,-275.14 1283.86,-288 1283.86,-288 1283.86,-288 1657.47,-288 1657.47,-288 1657.47,-288 1657.47,-292.96 1657.47,-292.96"/>
<polygon fill="black" stroke="black" points="1653.97,-292.96 1657.47,-302.96 1660.97,-292.96 1653.97,-292.96"/>
</g>
<!-- MailerModule&#45;&gt;AppModule -->
<g id="edge4" class="edge">
<title>MailerModule&#45;&gt;AppModule</title>
<path fill="none" stroke="black" d="M1316.14,-263.03C1316.14,-302.28 1316.14,-392 1316.14,-392 1316.14,-392 1362.22,-392 1362.22,-392"/>
<polygon fill="black" stroke="black" points="1362.22,-395.5 1372.22,-392 1362.22,-388.5 1362.22,-395.5"/>
</g>
<!-- MailerService  -->
<g id="node16" class="node">
<title>MailerService </title>
<polygon fill="#fb8072" stroke="black" points="278.29,-339 179.71,-339 179.71,-303 278.29,-303 278.29,-339"/>
<text text-anchor="middle" x="229" y="-316.8" font-family="Times,serif" font-size="14.00">MailerService </text>
</g>
<!-- MailerModule&#45;&gt;MailerService  -->
<g id="edge20" class="edge">
<title>MailerModule&#45;&gt;MailerService </title>
<path fill="none" stroke="black" stroke-dasharray="5,2" d="M1251.55,-251C1042.59,-251 229,-251 229,-251 229,-251 229,-292.97 229,-292.97"/>
<polygon fill="black" stroke="black" points="225.5,-292.97 229,-302.97 232.5,-292.97 225.5,-292.97"/>
</g>
<!-- MatchModule -->
<g id="node5" class="node">
<title>MatchModule</title>
<polygon fill="#8dd3c7" stroke="black" points="1461.81,-263 1458.81,-267 1437.81,-267 1434.81,-263 1366.19,-263 1366.19,-227 1461.81,-227 1461.81,-263"/>
<text text-anchor="middle" x="1414" y="-240.8" font-family="Times,serif" font-size="14.00">MatchModule</text>
</g>
<!-- MatchModule&#45;&gt;EventsModule -->
<g id="edge16" class="edge">
<title>MatchModule&#45;&gt;EventsModule</title>
<path fill="none" stroke="black" d="M1427.94,-263.03C1427.94,-283.77 1427.94,-315 1427.94,-315 1427.94,-315 1473.32,-315 1473.32,-315"/>
<polygon fill="black" stroke="black" points="1473.32,-318.5 1483.32,-315 1473.32,-311.5 1473.32,-318.5"/>
</g>
<!-- MatchModule&#45;&gt;AppModule -->
<g id="edge5" class="edge">
<title>MatchModule&#45;&gt;AppModule</title>
<path fill="none" stroke="black" d="M1414,-263.14C1414,-263.14 1414,-357.93 1414,-357.93"/>
<polygon fill="black" stroke="black" points="1410.5,-357.92 1414,-367.93 1417.5,-357.93 1410.5,-357.92"/>
</g>
<!-- MatchService  -->
<g id="node18" class="node">
<title>MatchService </title>
<polygon fill="#fb8072" stroke="black" points="569.74,-339 472.26,-339 472.26,-303 569.74,-303 569.74,-339"/>
<text text-anchor="middle" x="521" y="-316.8" font-family="Times,serif" font-size="14.00">MatchService </text>
</g>
<!-- MatchModule&#45;&gt;MatchService  -->
<g id="edge23" class="edge">
<title>MatchModule&#45;&gt;MatchService </title>
<path fill="none" stroke="black" stroke-dasharray="5,2" d="M1400.06,-263.21C1400.06,-268.55 1400.06,-273 1400.06,-273 1400.06,-273 521,-273 521,-273 521,-273 521,-292.85 521,-292.85"/>
<polygon fill="black" stroke="black" points="517.5,-292.85 521,-302.85 524.5,-292.85 517.5,-292.85"/>
</g>
<!-- MatchPlayerModule -->
<g id="node6" class="node">
<title>MatchPlayerModule</title>
<polygon fill="#8dd3c7" stroke="black" points="1670.58,-198 1667.58,-202 1646.58,-202 1643.58,-198 1539.42,-198 1539.42,-162 1670.58,-162 1670.58,-198"/>
<text text-anchor="middle" x="1605" y="-175.8" font-family="Times,serif" font-size="14.00">MatchPlayerModule</text>
</g>
<!-- MatchPlayerModule&#45;&gt;MatchModule -->
<g id="edge22" class="edge">
<title>MatchPlayerModule&#45;&gt;MatchModule</title>
<path fill="none" stroke="black" d="M1563.86,-198.04C1563.86,-205.75 1563.86,-213 1563.86,-213 1563.86,-213 1431.14,-213 1431.14,-213 1431.14,-213 1431.14,-216.76 1431.14,-216.76"/>
<polygon fill="black" stroke="black" points="1427.64,-216.76 1431.14,-226.76 1434.64,-216.76 1427.64,-216.76"/>
</g>
<!-- MatchPlayerModule&#45;&gt;AppModule -->
<g id="edge6" class="edge">
<title>MatchPlayerModule&#45;&gt;AppModule</title>
<path fill="none" stroke="black" d="M1592.25,-198.28C1592.25,-248.7 1592.25,-386 1592.25,-386 1592.25,-386 1465.79,-386 1465.79,-386"/>
<polygon fill="black" stroke="black" points="1465.79,-382.5 1455.79,-386 1465.79,-389.5 1465.79,-382.5"/>
</g>
<!-- MatchPlayerService  -->
<g id="node20" class="node">
<title>MatchPlayerService </title>
<polygon fill="#fb8072" stroke="black" points="2067.51,-263 1934.49,-263 1934.49,-227 2067.51,-227 2067.51,-263"/>
<text text-anchor="middle" x="2001" y="-240.8" font-family="Times,serif" font-size="14.00">MatchPlayerService </text>
</g>
<!-- MatchPlayerModule&#45;&gt;MatchPlayerService  -->
<g id="edge25" class="edge">
<title>MatchPlayerModule&#45;&gt;MatchPlayerService </title>
<path fill="none" stroke="black" stroke-dasharray="5,2" d="M1670.84,-174C1783.44,-174 2001,-174 2001,-174 2001,-174 2001,-216.72 2001,-216.72"/>
<polygon fill="black" stroke="black" points="1997.5,-216.72 2001,-226.72 2004.5,-216.72 1997.5,-216.72"/>
</g>
<!-- MessageModule -->
<g id="node7" class="node">
<title>MessageModule</title>
<polygon fill="#8dd3c7" stroke="black" points="1588.03,-263 1585.03,-267 1564.03,-267 1561.03,-263 1479.97,-263 1479.97,-227 1588.03,-227 1588.03,-263"/>
<text text-anchor="middle" x="1534" y="-240.8" font-family="Times,serif" font-size="14.00">MessageModule</text>
</g>
<!-- MessageModule&#45;&gt;EventsModule -->
<g id="edge17" class="edge">
<title>MessageModule&#45;&gt;EventsModule</title>
<path fill="none" stroke="black" d="M1556.41,-263.01C1556.41,-263.01 1556.41,-292.85 1556.41,-292.85"/>
<polygon fill="black" stroke="black" points="1552.91,-292.85 1556.41,-302.85 1559.91,-292.85 1552.91,-292.85"/>
</g>
<!-- MessageModule&#45;&gt;AppModule -->
<g id="edge7" class="edge">
<title>MessageModule&#45;&gt;AppModule</title>
<path fill="none" stroke="black" d="M1584.54,-263.21C1584.54,-300.06 1584.54,-380 1584.54,-380 1584.54,-380 1465.72,-380 1465.72,-380"/>
<polygon fill="black" stroke="black" points="1465.72,-376.5 1455.72,-380 1465.72,-383.5 1465.72,-376.5"/>
</g>
<!-- MessageService  -->
<g id="node22" class="node">
<title>MessageService </title>
<polygon fill="#fb8072" stroke="black" points="892.46,-339 781.54,-339 781.54,-303 892.46,-303 892.46,-339"/>
<text text-anchor="middle" x="837" y="-316.8" font-family="Times,serif" font-size="14.00">MessageService </text>
</g>
<!-- MessageModule&#45;&gt;MessageService  -->
<g id="edge27" class="edge">
<title>MessageModule&#45;&gt;MessageService </title>
<path fill="none" stroke="black" stroke-dasharray="5,2" d="M1532,-263.11C1532,-272.9 1532,-283 1532,-283 1532,-283 837,-283 837,-283 837,-283 837,-292.89 837,-292.89"/>
<polygon fill="black" stroke="black" points="833.5,-292.89 837,-302.89 840.5,-292.89 833.5,-292.89"/>
</g>
<!-- TerrainModule -->
<g id="node8" class="node">
<title>TerrainModule</title>
<polygon fill="#8dd3c7" stroke="black" points="1501.24,-198 1498.24,-202 1477.24,-202 1474.24,-198 1400.76,-198 1400.76,-162 1501.24,-162 1501.24,-198"/>
<text text-anchor="middle" x="1451" y="-175.8" font-family="Times,serif" font-size="14.00">TerrainModule</text>
</g>
<!-- TerrainModule&#45;&gt;AppModule -->
<g id="edge8" class="edge">
<title>TerrainModule&#45;&gt;AppModule</title>
<path fill="none" stroke="black" d="M1470.7,-198.25C1470.7,-246.54 1470.7,-374 1470.7,-374 1470.7,-374 1465.8,-374 1465.8,-374"/>
<polygon fill="black" stroke="black" points="1465.8,-370.5 1455.8,-374 1465.8,-377.5 1465.8,-370.5"/>
</g>
<!-- UserModule -->
<g id="node9" class="node">
<title>UserModule</title>
<polygon fill="#8dd3c7" stroke="black" points="1691.98,-263 1688.98,-267 1667.98,-267 1664.98,-263 1606.02,-263 1606.02,-227 1691.98,-227 1691.98,-263"/>
<text text-anchor="middle" x="1649" y="-240.8" font-family="Times,serif" font-size="14.00">UserModule</text>
</g>
<!-- UserModule&#45;&gt;AuthModule -->
<g id="edge11" class="edge">
<title>UserModule&#45;&gt;AuthModule</title>
<path fill="none" stroke="black" d="M1674.62,-263.01C1674.62,-263.01 1674.62,-292.85 1674.62,-292.85"/>
<polygon fill="black" stroke="black" points="1671.12,-292.85 1674.62,-302.85 1678.12,-292.85 1671.12,-292.85"/>
</g>
<!-- UserModule&#45;&gt;EventsModule -->
<g id="edge18" class="edge">
<title>UserModule&#45;&gt;EventsModule</title>
<path fill="none" stroke="black" d="M1605.92,-239C1600.19,-239 1596.25,-239 1596.25,-239 1596.25,-239 1596.25,-321 1596.25,-321 1596.25,-321 1590.69,-321 1590.69,-321"/>
<polygon fill="black" stroke="black" points="1590.69,-317.5 1580.69,-321 1590.69,-324.5 1590.69,-317.5"/>
</g>
<!-- UserModule&#45;&gt;AppModule -->
<g id="edge9" class="edge">
<title>UserModule&#45;&gt;AppModule</title>
<path fill="none" stroke="black" d="M1605.83,-251C1602.41,-251 1600.24,-251 1600.24,-251 1600.24,-251 1600.24,-392 1600.24,-392 1600.24,-392 1465.79,-392 1465.79,-392"/>
<polygon fill="black" stroke="black" points="1465.79,-388.5 1455.79,-392 1465.79,-395.5 1465.79,-388.5"/>
</g>
<!-- UserService  -->
<g id="node25" class="node">
<title>UserService </title>
<polygon fill="#fb8072" stroke="black" points="1159.9,-339 1072.1,-339 1072.1,-303 1159.9,-303 1159.9,-339"/>
<text text-anchor="middle" x="1116" y="-316.8" font-family="Times,serif" font-size="14.00">UserService </text>
</g>
<!-- UserModule&#45;&gt;UserService  -->
<g id="edge30" class="edge">
<title>UserModule&#45;&gt;UserService </title>
<path fill="none" stroke="black" stroke-dasharray="5,2" d="M1640.32,-263.24C1640.32,-278.57 1640.32,-298 1640.32,-298 1640.32,-298 1116,-298 1116,-298 1116,-298 1116,-298.49 1116,-298.49"/>
<polygon fill="black" stroke="black" points="1112.5,-292.88 1116,-302.88 1119.5,-292.88 1112.5,-292.88"/>
</g>
<!-- AtStrategy -->
<g id="node11" class="node">
<title>AtStrategy</title>
<ellipse fill="#fdb462" stroke="black" cx="2297" cy="-245" rx="52.74" ry="18"/>
<text text-anchor="middle" x="2297" y="-240.8" font-family="Times,serif" font-size="14.00">AtStrategy</text>
</g>
<!-- AtStrategy&#45;&gt;AuthModule -->
<g id="edge12" class="edge">
<title>AtStrategy&#45;&gt;AuthModule</title>
<path fill="none" stroke="black" d="M2297,-263.04C2297,-284.66 2297,-318 2297,-318 2297,-318 1701.59,-318 1701.59,-318"/>
<polygon fill="black" stroke="black" points="1701.59,-314.5 1691.59,-318 1701.59,-321.5 1701.59,-314.5"/>
</g>
<!-- AuthService -->
<g id="node12" class="node">
<title>AuthService</title>
<ellipse fill="#fdb462" stroke="black" cx="2167" cy="-245" rx="59.11" ry="18"/>
<text text-anchor="middle" x="2167" y="-240.8" font-family="Times,serif" font-size="14.00">AuthService</text>
</g>
<!-- AuthService&#45;&gt;AuthModule -->
<g id="edge13" class="edge">
<title>AuthService&#45;&gt;AuthModule</title>
<path fill="none" stroke="black" d="M2167,-263.03C2167,-282.58 2167,-311 2167,-311 2167,-311 1701.8,-311 1701.8,-311"/>
<polygon fill="black" stroke="black" points="1701.8,-307.5 1691.8,-311 1701.8,-314.5 1701.8,-307.5"/>
</g>
<!-- RtStrategy -->
<g id="node13" class="node">
<title>RtStrategy</title>
<ellipse fill="#fdb462" stroke="black" cx="2568" cy="-245" rx="52.18" ry="18"/>
<text text-anchor="middle" x="2568" y="-240.8" font-family="Times,serif" font-size="14.00">RtStrategy</text>
</g>
<!-- RtStrategy&#45;&gt;AuthModule -->
<g id="edge14" class="edge">
<title>RtStrategy&#45;&gt;AuthModule</title>
<path fill="none" stroke="black" d="M2568,-263.03C2568,-288.51 2568,-332 2568,-332 2568,-332 1701.75,-332 1701.75,-332"/>
<polygon fill="black" stroke="black" points="1701.75,-328.5 1691.75,-332 1701.75,-335.5 1701.75,-328.5"/>
</g>
<!-- TokenService -->
<g id="node14" class="node">
<title>TokenService</title>
<ellipse fill="#fdb462" stroke="black" cx="2433" cy="-245" rx="64.83" ry="18"/>
<text text-anchor="middle" x="2433" y="-240.8" font-family="Times,serif" font-size="14.00">TokenService</text>
</g>
<!-- TokenService&#45;&gt;AuthModule -->
<g id="edge15" class="edge">
<title>TokenService&#45;&gt;AuthModule</title>
<path fill="none" stroke="black" d="M2433,-263.15C2433,-286.76 2433,-325 2433,-325 2433,-325 1701.6,-325 1701.6,-325"/>
<polygon fill="black" stroke="black" points="1701.6,-321.5 1691.6,-325 1701.6,-328.5 1701.6,-321.5"/>
</g>
<!-- GeminiService -->
<g id="node15" class="node">
<title>GeminiService</title>
<ellipse fill="#fdb462" stroke="black" cx="1288" cy="-104" rx="68.92" ry="18"/>
<text text-anchor="middle" x="1288" y="-99.8" font-family="Times,serif" font-size="14.00">GeminiService</text>
</g>
<!-- GeminiService&#45;&gt;GeminiModule -->
<g id="edge19" class="edge">
<title>GeminiService&#45;&gt;GeminiModule</title>
<path fill="none" stroke="black" d="M1303,-121.63C1303,-121.63 1303,-151.94 1303,-151.94"/>
<polygon fill="black" stroke="black" points="1299.5,-151.94 1303,-161.94 1306.5,-151.94 1299.5,-151.94"/>
</g>
<!-- MailerService -->
<g id="node17" class="node">
<title>MailerService</title>
<ellipse fill="#fdb462" stroke="black" cx="90" cy="-321" rx="65.96" ry="18"/>
<text text-anchor="middle" x="90" y="-316.8" font-family="Times,serif" font-size="14.00">MailerService</text>
</g>
<!-- MailerService&#45;&gt;MailerModule -->
<g id="edge21" class="edge">
<title>MailerService&#45;&gt;MailerModule</title>
<path fill="none" stroke="black" d="M90,-302.8C90,-278.64 90,-239 90,-239 90,-239 1241.44,-239 1241.44,-239"/>
<polygon fill="black" stroke="black" points="1241.44,-242.5 1251.44,-239 1241.44,-235.5 1241.44,-242.5"/>
</g>
<!-- MatchService -->
<g id="node19" class="node">
<title>MatchService</title>
<ellipse fill="#fdb462" stroke="black" cx="383" cy="-321" rx="64.82" ry="18"/>
<text text-anchor="middle" x="383" y="-316.8" font-family="Times,serif" font-size="14.00">MatchService</text>
</g>
<!-- MatchService&#45;&gt;MatchModule -->
<g id="edge24" class="edge">
<title>MatchService&#45;&gt;MatchModule</title>
<path fill="none" stroke="black" d="M383,-302.76C383,-287.43 383,-268 383,-268 383,-268 1386.11,-268 1386.11,-268 1386.11,-268 1386.11,-267.51 1386.11,-267.51"/>
<polygon fill="black" stroke="black" points="1389.61,-273.12 1386.11,-263.12 1382.61,-273.12 1389.61,-273.12"/>
</g>
<!-- MatchPlayerService -->
<g id="node21" class="node">
<title>MatchPlayerService</title>
<ellipse fill="#fdb462" stroke="black" cx="1821" cy="-245" rx="89.16" ry="18"/>
<text text-anchor="middle" x="1821" y="-240.8" font-family="Times,serif" font-size="14.00">MatchPlayerService</text>
</g>
<!-- MatchPlayerService&#45;&gt;MatchPlayerModule -->
<g id="edge26" class="edge">
<title>MatchPlayerService&#45;&gt;MatchPlayerModule</title>
<path fill="none" stroke="black" d="M1821,-226.98C1821,-209.63 1821,-186 1821,-186 1821,-186 1680.69,-186 1680.69,-186"/>
<polygon fill="black" stroke="black" points="1680.69,-182.5 1670.69,-186 1680.69,-189.5 1680.69,-182.5"/>
</g>
<!-- MessageService -->
<g id="node23" class="node">
<title>MessageService</title>
<ellipse fill="#fdb462" stroke="black" cx="684" cy="-321" rx="73.55" ry="18"/>
<text text-anchor="middle" x="684" y="-316.8" font-family="Times,serif" font-size="14.00">MessageService</text>
</g>
<!-- MessageService&#45;&gt;MessageModule -->
<g id="edge28" class="edge">
<title>MessageService&#45;&gt;MessageModule</title>
<path fill="none" stroke="black" d="M684,-302.51C684,-290.86 684,-278 684,-278 684,-278 1507.59,-278 1507.59,-278 1507.59,-278 1507.59,-273.04 1507.59,-273.04"/>
<polygon fill="black" stroke="black" points="1511.09,-273.04 1507.59,-263.04 1504.09,-273.04 1511.09,-273.04"/>
</g>
<!-- TerrainService -->
<g id="node24" class="node">
<title>TerrainService</title>
<ellipse fill="#fdb462" stroke="black" cx="1465" cy="-104" rx="68.31" ry="18"/>
<text text-anchor="middle" x="1465" y="-99.8" font-family="Times,serif" font-size="14.00">TerrainService</text>
</g>
<!-- TerrainService&#45;&gt;TerrainModule -->
<g id="edge29" class="edge">
<title>TerrainService&#45;&gt;TerrainModule</title>
<path fill="none" stroke="black" d="M1451,-121.63C1451,-121.63 1451,-151.94 1451,-151.94"/>
<polygon fill="black" stroke="black" points="1447.5,-151.94 1451,-161.94 1454.5,-151.94 1447.5,-151.94"/>
</g>
<!-- UserService -->
<g id="node26" class="node">
<title>UserService</title>
<ellipse fill="#fdb462" stroke="black" cx="990" cy="-321" rx="58.44" ry="18"/>
<text text-anchor="middle" x="990" y="-316.8" font-family="Times,serif" font-size="14.00">UserService</text>
</g>
<!-- UserService&#45;&gt;UserModule -->
<g id="edge31" class="edge">
<title>UserService&#45;&gt;UserModule</title>
<path fill="none" stroke="black" d="M990,-302.79C990,-297.45 990,-293 990,-293 990,-293 1623.16,-293 1623.16,-293 1623.16,-293 1623.16,-273.15 1623.16,-273.15"/>
<polygon fill="black" stroke="black" points="1626.66,-273.15 1623.16,-263.15 1619.66,-273.15 1626.66,-273.15"/>
</g>
</g>
</svg>
